<svg version="1.1" xmlns="http://www.w3.org/2000/svg" xmlns:xlink="http://www.w3.org/1999/xlink" width="344.0514" height="238.15831" viewBox="0,0,344.0514,238.15831"><defs><linearGradient x1="180" y1="204.67086" x2="180" y2="435.32916" gradientUnits="userSpaceOnUse" id="color-1"><stop offset="0" stop-color="#afff66"/><stop offset="1" stop-color="#f1ff66"/></linearGradient></defs><g transform="translate(-7.9743,-200.92085)"><g data-paper-data="{&quot;isPaintingLayer&quot;:true}" fill-rule="nonzero" stroke-linejoin="miter" stroke-miterlimit="10" stroke-dasharray="" stroke-dashoffset="0" style="mix-blend-mode: normal"><path d="M30.19324,435.32916c-10.20012,0 -18.46894,-8.26883 -18.46894,-18.46894v-193.72043c0,-10.20012 8.26883,-18.46894 18.46894,-18.46894h299.61352c10.20012,0 18.46894,8.26883 18.46894,18.46894v193.72043c0,10.20012 -8.26883,18.46894 -18.46894,18.46894z" fill="url(#color-1)" stroke="#000000" stroke-width="7.5" stroke-linecap="butt"/><text transform="translate(27.17549,242.13938) scale(0.54219,0.54993)" font-size="40" xml:space="preserve" fill="#000000" fill-rule="nonzero" stroke="#000000" stroke-width="2" stroke-linecap="butt" stroke-linejoin="miter" stroke-miterlimit="10" stroke-dasharray="" stroke-dashoffset="0" font-family="&quot;Century Gothic&quot;, Sans Serif" font-weight="normal" text-anchor="start" style="mix-blend-mode: normal"><tspan x="0" dy="0">привет! тут ты</tspan><tspan x="0" dy="46.150000000000006px">сможешь посмотреть</tspan><tspan x="0" dy="46.150000000000006px">домашнее задание а если</tspan><tspan x="0" dy="46.150000000000006px">вы учитель опубликовать его</tspan></text><text transform="translate(17.8054,407.63054) scale(0.42241,0.42241)" font-size="40" xml:space="preserve" fill="#000000" fill-rule="nonzero" stroke="#000000" stroke-width="2" stroke-linecap="butt" stroke-linejoin="miter" stroke-miterlimit="10" stroke-dasharray="" stroke-dashoffset="0" font-family="&quot;Century Gothic&quot;, Sans Serif" font-weight="normal" text-anchor="start" style="mix-blend-mode: normal"><tspan x="0" dy="0">(неофициальный портал    )</tspan></text><path d="M237.79049,410.5725c-1.40056,0 -2.53593,-1.13538 -2.53593,-2.53594v-9.63543c0,-1.40056 1.13537,-2.53593 2.53593,-2.53593h9.63543c1.40056,0 2.53594,1.13538 2.53594,2.53593v9.63543c0,1.40056 -1.13538,2.53594 -2.53594,2.53594z" fill="#ff0000" stroke="#000000" stroke-width="2" stroke-linecap="butt"/><path d="M247.31925,407.72268l-9.03699,-9.03699" fill="none" stroke="#ffffff" stroke-width="2.5" stroke-linecap="round"/><path d="M238.15517,407.96329l9.31438,-9.31438" data-paper-data="{&quot;index&quot;:null}" fill="none" stroke="#ffffff" stroke-width="2.5" stroke-linecap="round"/></g></g></svg>